<mxfile modified="2021-09-03T03:36:10.423Z" host="app.diagrams.net" agent="5.0 (X11)" etag="DezdyVm6ZRV0NuNtS419" version="13.10.6" type="github">
  <diagram id="Ht1M8jgEwFfnCIfOTk4-" name="Page-1">
    <mxGraphModel dx="1282" dy="608" grid="1" gridSize="10" guides="1" tooltips="1" connect="1" arrows="1" fold="1" page="1" pageScale="1" pageWidth="1169" pageHeight="827" math="0" shadow="0">
      <root>
        <mxCell id="0" />
        <mxCell id="1" parent="0" />
        <mxCell id="vKm5uXgS8-koMIw_AzAA-11" value="&lt;div&gt;&lt;font style=&quot;font-size: 18px&quot;&gt;AWS&lt;/font&gt;&lt;/div&gt;&lt;div&gt;&lt;br&gt;&lt;/div&gt;" style="points=[[0,0],[0.25,0],[0.5,0],[0.75,0],[1,0],[1,0.25],[1,0.5],[1,0.75],[1,1],[0.75,1],[0.5,1],[0.25,1],[0,1],[0,0.75],[0,0.5],[0,0.25]];outlineConnect=0;gradientColor=none;html=1;whiteSpace=wrap;fontSize=12;fontStyle=0;shape=mxgraph.aws4.group;grIcon=mxgraph.aws4.group_aws_cloud_alt;strokeColor=#232F3E;fillColor=none;verticalAlign=top;align=left;spacingLeft=30;fontColor=#232F3E;dashed=0;labelBackgroundColor=#ffffff;" vertex="1" parent="1">
          <mxGeometry x="270" y="90" width="430" height="470" as="geometry" />
        </mxCell>
        <mxCell id="UEzPUAAOIrF-is8g5C7q-75" value="&lt;font style=&quot;font-size: 18px&quot;&gt;AZ - us-east-1a&lt;/font&gt;" style="points=[[0,0],[0.25,0],[0.5,0],[0.75,0],[1,0],[1,0.25],[1,0.5],[1,0.75],[1,1],[0.75,1],[0.5,1],[0.25,1],[0,1],[0,0.75],[0,0.5],[0,0.25]];outlineConnect=0;gradientColor=none;html=1;whiteSpace=wrap;fontSize=12;fontStyle=0;shape=mxgraph.aws4.group;grIcon=mxgraph.aws4.group_aws_cloud_alt;strokeColor=#232F3E;fillColor=none;verticalAlign=top;align=left;spacingLeft=30;fontColor=#232F3E;dashed=0;labelBackgroundColor=#ffffff;" parent="1" vertex="1">
          <mxGeometry x="320" y="140" width="320" height="390" as="geometry" />
        </mxCell>
        <mxCell id="vKm5uXgS8-koMIw_AzAA-15" style="edgeStyle=orthogonalEdgeStyle;rounded=0;orthogonalLoop=1;jettySize=auto;html=1;" edge="1" parent="1" source="vKm5uXgS8-koMIw_AzAA-1" target="vKm5uXgS8-koMIw_AzAA-3">
          <mxGeometry relative="1" as="geometry" />
        </mxCell>
        <mxCell id="vKm5uXgS8-koMIw_AzAA-1" value="&lt;font style=&quot;font-size: 18px&quot;&gt;Clientes&lt;/font&gt;" style="outlineConnect=0;fontColor=#232F3E;gradientColor=none;fillColor=#232F3E;strokeColor=none;dashed=0;verticalLabelPosition=bottom;verticalAlign=top;align=center;html=1;fontSize=12;fontStyle=0;aspect=fixed;pointerEvents=1;shape=mxgraph.aws4.client;" vertex="1" parent="1">
          <mxGeometry x="790" y="260" width="78" height="76" as="geometry" />
        </mxCell>
        <mxCell id="vKm5uXgS8-koMIw_AzAA-3" value="" style="outlineConnect=0;fontColor=#232F3E;gradientColor=none;fillColor=#D86613;strokeColor=none;dashed=0;verticalLabelPosition=bottom;verticalAlign=top;align=center;html=1;fontSize=12;fontStyle=0;aspect=fixed;pointerEvents=1;shape=mxgraph.aws4.instance2;" vertex="1" parent="1">
          <mxGeometry x="406" y="212" width="148" height="148" as="geometry" />
        </mxCell>
        <mxCell id="vKm5uXgS8-koMIw_AzAA-4" value="&lt;font style=&quot;font-size: 18px&quot;&gt;Instancia Ubuntu 20.04&lt;/font&gt;" style="text;html=1;strokeColor=none;fillColor=none;align=center;verticalAlign=middle;whiteSpace=wrap;rounded=0;" vertex="1" parent="1">
          <mxGeometry x="460" y="266" width="40" height="40" as="geometry" />
        </mxCell>
        <mxCell id="vKm5uXgS8-koMIw_AzAA-8" value="&lt;div&gt;&lt;font style=&quot;font-size: 18px&quot;&gt;Almacenamiento &lt;br&gt;&lt;/font&gt;&lt;/div&gt;&lt;div&gt;&lt;font size=&quot;3&quot;&gt;de 8GB&lt;/font&gt;&lt;/div&gt;" style="outlineConnect=0;fontColor=#232F3E;gradientColor=#60A337;gradientDirection=north;fillColor=#277116;strokeColor=#ffffff;dashed=0;verticalLabelPosition=bottom;verticalAlign=top;align=center;html=1;fontSize=12;fontStyle=0;aspect=fixed;shape=mxgraph.aws4.resourceIcon;resIcon=mxgraph.aws4.storage;" vertex="1" parent="1">
          <mxGeometry x="360" y="360" width="78" height="78" as="geometry" />
        </mxCell>
        <mxCell id="vKm5uXgS8-koMIw_AzAA-9" value="&lt;div&gt;&lt;font style=&quot;font-size: 18px&quot;&gt;Apache2 Server&lt;/font&gt;&lt;/div&gt;&lt;div&gt;&lt;font size=&quot;3&quot;&gt;Recurso Principal:&lt;/font&gt;&lt;/div&gt;&lt;div&gt;&lt;font size=&quot;3&quot;&gt;index.html&lt;br&gt;&lt;/font&gt;&lt;/div&gt;" style="dashed=0;outlineConnect=0;html=1;align=center;labelPosition=center;verticalLabelPosition=bottom;verticalAlign=top;shape=mxgraph.webicons.apache;gradientColor=#DFDEDE" vertex="1" parent="1">
          <mxGeometry x="520" y="360" width="80" height="82.4" as="geometry" />
        </mxCell>
        <mxCell id="vKm5uXgS8-koMIw_AzAA-10" value="&lt;font style=&quot;font-size: 18px&quot;&gt;IP ElÃ¡stica: 23.23.243.250&lt;/font&gt;" style="text;html=1;strokeColor=none;fillColor=none;align=center;verticalAlign=middle;whiteSpace=wrap;rounded=0;" vertex="1" parent="1">
          <mxGeometry x="350" y="180" width="260" height="20" as="geometry" />
        </mxCell>
      </root>
    </mxGraphModel>
  </diagram>
</mxfile>
